<?xml version="1.0" encoding="utf-8"?>
<!-- Svg Vector Icons : http://www.onlinewebfonts.com/icon -->
<!DOCTYPE svg PUBLIC "-//W3C//DTD SVG 1.1//EN" "http://www.w3.org/Graphics/SVG/1.1/DTD/svg11.dtd">
<svg version="1.1" xmlns="http://www.w3.org/2000/svg" xmlns:xlink="http://www.w3.org/1999/xlink" x="0px" y="0px" viewBox="0 0 1000 1000" enable-background="new 0 0 1000 1000" xml:space="preserve">
<metadata> Svg Vector Icons : http://www.onlinewebfonts.com/icon </metadata>
<g><path d="M941.3,561.8c0,55.8-10.5,108.3-31.5,157.6c-21,49.3-49.8,92.9-86.4,131c-36.6,38-79.7,69.2-129.3,93.5c-49.6,24.3-103.1,38.9-160.3,44c-3.6,0.7-6.9,1.3-9.8,1.6c-2.9,0.4-6.2,0.5-9.8,0.5h-188c-12.3,0-24.5-2.2-36.4-6.5c-12-4.3-22.6-10.3-32.1-17.9c-9.4-7.6-17.2-16.5-23.4-26.6c-6.2-10.1-9.2-20.6-9.2-31.5s2.9-21.4,8.7-31.5c5.8-10.1,13.4-18.8,22.8-26.1c9.4-7.2,19.9-13,31.5-17.4c11.6-4.3,23.5-6.5,35.9-6.5l168.5,1.1c38.4,0,74.6-7.1,108.7-21.2c34.1-14.1,63.8-33.1,89.1-57.1c25.4-23.9,45.3-52,59.8-84.2c14.5-32.2,21.7-66.8,21.7-103.8c0-34.8-6.5-67.4-19.6-97.8c-13-30.4-31-57.6-53.8-81.5c-22.8-23.9-49.5-43.3-79.9-58.1c-30.4-14.9-63.4-24.1-98.9-27.7c-1.4,0-2.4,0.2-2.7,0.5c-0.4,0.4-1.3,0.5-2.7,0.5H341.3v85.9c0,12.3-4.9,21.4-14.7,27.2c-9.8,5.8-25.5,2.2-47.3-10.9c-5.8-3.6-15-10-27.7-19c-12.7-9.1-27.5-19.7-44.6-32.1c-17-12.3-35-25.4-53.8-39.1L99,267.3c-10.9-8.7-20.3-16.5-28.3-23.4c-8-6.9-12-15.4-12-25.5c0-8.7,4.5-17.8,13.6-27.2c9.1-9.4,19.4-18.8,31-28.3c13-10.9,28.6-23.5,46.7-38c18.1-14.5,36-28.6,53.8-42.4s33.7-26.3,47.8-37.5c14.1-11.2,24.1-19,29.9-23.4c17.4-12.3,31.5-14.9,42.4-7.6c10.9,7.2,16.7,18.1,17.4,32.6v86.9h172.8c3.6,0,7.4,0.4,11.4,1.1c4,0.7,7.8,1.4,11.4,2.2c56.5,5.8,109.4,20.7,158.7,44.6c49.3,23.9,92.2,54.9,128.8,92.9c36.6,38,65.2,81.7,85.9,131C930.9,454.6,941.3,506.7,941.3,561.8L941.3,561.8z"/></g>
</svg>